<?xml version="1.0" encoding="UTF-8" standalone="no"?>
<svg
   version="1.0"
   width="2739.9819pt"
   height="2670.1509pt"
   viewBox="-100 -100 2739.9819 2670.1508"
   preserveAspectRatio="xMidYMid"
   id="svg8"
   sodipodi:docname="glity.svg"
   inkscape:version="1.2.2 (732a01da63, 2022-12-09)"
   inkscape:export-filename="univer.png"
   inkscape:export-xdpi="72.002701"
   inkscape:export-ydpi="72.002701"
   xml:space="preserve"
   xmlns:inkscape="http://www.inkscape.org/namespaces/inkscape"
   xmlns:sodipodi="http://sodipodi.sourceforge.net/DTD/sodipodi-0.dtd"
   xmlns:xlink="http://www.w3.org/1999/xlink"
   xmlns="http://www.w3.org/2000/svg"
   xmlns:svg="http://www.w3.org/2000/svg"><defs
     id="defs12"><linearGradient
       inkscape:collect="always"
       id="linearGradient500"><stop
         style="stop-color:#c40055;stop-opacity:1;"
         offset="0"
         id="stop496" /><stop
         style="stop-color:#763aff;stop-opacity:1;"
         offset="1"
         id="stop498" /></linearGradient><rect
       x="-2518.6897"
       y="3068.7483"
       width="9521.8047"
       height="2205.7012"
       id="rect3431" /><linearGradient
       inkscape:collect="always"
       xlink:href="#linearGradient500"
       id="linearGradient502"
       x1="1384.9242"
       y1="86.676193"
       x2="1384.9242"
       y2="2182.5408"
       gradientUnits="userSpaceOnUse"
       gradientTransform="matrix(0.90822621,0,0,0.90822621,2.5899695,-78.88976)" /></defs><sodipodi:namedview
     id="namedview10"
     pagecolor="#ffffff"
     bordercolor="#999999"
     borderopacity="1"
     inkscape:pageshadow="0"
     inkscape:pageopacity="0"
     inkscape:pagecheckerboard="0"
     inkscape:document-units="pt"
     showgrid="false"
     inkscape:zoom="0.125"
     inkscape:cx="1100"
     inkscape:cy="3592"
     inkscape:window-width="1928"
     inkscape:window-height="1704"
     inkscape:window-x="414"
     inkscape:window-y="182"
     inkscape:window-maximized="0"
     inkscape:current-layer="svg8"
     fit-margin-top="150"
     fit-margin-left="150"
     fit-margin-right="150"
     fit-margin-bottom="150"
     lock-margins="true"
     inkscape:showpageshadow="0"
     inkscape:deskcolor="#d1d1d1" /><metadata
     id="metadata2">
Created by potrace 1.12, written by Peter Selinger 2001-2015
</metadata><text
     xml:space="preserve"
     transform="matrix(0.51691072,0,0,0.51691072,1265.961,407.96007)"
     id="text3429"
     style="font-style:normal;font-weight:normal;font-size:966.151px;line-height:1.25;font-family:sans-serif;white-space:pre;shape-inside:url(#rect3431);display:inline;fill:#6044ff;fill-opacity:1;stroke:#6044ff;stroke-width:54.0319;stroke-dasharray:none;stroke-opacity:1"><tspan
       x="-2518.6895"
       y="3962.4377"
       id="tspan465"><tspan
         dx="0 0 0 0 0.00018310547 -0.00012207031"
         style="font-family:'Dune Rise';-inkscape-font-specification:'Dune Rise'"
         id="tspan463">UNIVER</tspan></tspan></text><path
     d="m 1343.5249,339.94912 300.8255,173.6164 c 10.8147,6.12255 11.2027,23.00178 0,29.09266 l -357.4565,206.44577 a 33.188425,33.188425 0 0 1 -33.6159,0 L 895.82942,542.65818 c -11.0047,-5.91143 -11.2026,-23.1918 0,-29.09266 L 1196.4571,339.94912 V 0 L 428.86384,443.17735 V 1329.5217 L 723.19735,1159.6525 V 812.4198 c -0.20052,-12.3932 14.35369,-21.2283 25.17634,-14.5464 l 357.44071,206.446 a 33.663452,33.663452 0 0 1 16.9109,29.1032 v 412.691 c 0.2004,12.3932 -14.3537,21.2287 -25.1682,14.5465 l -300.81792,-173.6058 -294.34143,169.8689 767.59325,443.1774 767.5931,-443.1774 -294.3414,-169.8689 -300.8176,173.6058 c -10.6168,6.5449 -25.5643,-2.0056 -25.1684,-14.5465 v -412.691 c 0,-12.3928 6.8879,-23.4031 16.9109,-29.1032 l 357.4485,-206.446 c 10.6089,-6.4394 25.5564,1.7946 25.1684,14.5464 v 347.2327 l 294.3335,169.8692 V 443.17735 L 1343.5249,0 Z"
     id="path167"
     style="fill:url(#linearGradient502);fill-opacity:1;stroke-width:79.1707" /></svg>
